<svg xmlns="http://www.w3.org/2000/svg" xmlns:xlink="http://www.w3.org/1999/xlink" width="255" zoomAndPan="magnify" viewBox="0 0 191.25 191.249996" height="255" preserveAspectRatio="xMidYMid meet" version="1.0"><defs><clipPath id="1451f2b9a7"><path d="M 33.074219 5.460938 L 157.085938 5.460938 L 157.085938 184.757812 L 33.074219 184.757812 Z M 33.074219 5.460938 " clip-rule="nonzero"/></clipPath><clipPath id="0bef2e9814"><path d="M 33.074219 5.460938 L 157.085938 5.460938 L 157.085938 184.757812 L 33.074219 184.757812 Z M 33.074219 5.460938 " clip-rule="nonzero"/></clipPath></defs><path fill="#1d2c5e" d="M 40.269531 41.484375 C 46.933594 39.261719 53.21875 37.199219 59.074219 35.355469 C 64.980469 33.457031 71.15625 31.664062 77.660156 29.984375 C 84.160156 28.304688 90.390625 27 96.351562 25.96875 C 100.90625 25.210938 105.621094 24.832031 110.386719 24.832031 C 118.40625 24.832031 123.609375 25.046875 126.101562 25.484375 C 129.839844 26.1875 133.417969 27.382812 136.722656 28.953125 C 140.082031 30.582031 143.0625 32.695312 145.664062 35.355469 C 148.265625 38.066406 150.433594 41.214844 152.058594 44.847656 C 152.707031 46.367188 153.085938 47.941406 153.085938 49.570312 C 153.085938 55.753906 149.671875 63.347656 142.953125 72.410156 C 136.179688 81.46875 129.40625 89.386719 122.578125 96.117188 C 115.804688 102.84375 110.710938 107.671875 107.351562 110.601562 L 122.199219 162.84375 L 100.578125 178.46875 L 62.59375 69.96875 C 62.484375 69.96875 62 70.453125 61.023438 71.539062 C 60.101562 72.570312 58.855469 73.925781 57.339844 75.609375 C 55.820312 77.292969 54.898438 78.320312 54.519531 78.703125 C 54.359375 78.703125 53.816406 77.507812 52.894531 75.175781 C 51.976562 72.789062 50.78125 69.480469 49.265625 65.246094 C 47.746094 61.015625 46.015625 56.351562 44.117188 51.195312 C 42.222656 46.042969 40.921875 42.789062 40.269531 41.484375 Z M 93.753906 64.488281 L 100.578125 88.898438 C 103.996094 85.429688 108.21875 80.65625 113.3125 74.632812 C 118.355469 68.664062 120.898438 64.269531 120.898438 61.558594 C 120.898438 60.527344 120.464844 59.929688 119.597656 59.769531 C 117.105469 59.226562 114.667969 58.953125 112.230469 58.953125 C 104.914062 58.953125 98.792969 60.796875 93.753906 64.488281 Z M 93.753906 64.488281 " fill-opacity="1" fill-rule="nonzero"/><g clip-path="url(#1451f2b9a7)"><path stroke-linecap="butt" transform="matrix(0.54187, 0, 0, 0.542502, -9176.783316, -16184.63662)" fill="none" stroke-linejoin="miter" d="M 17009.699573 29909.797484 C 17021.997832 29905.700436 17033.596835 29901.898606 17044.402866 29898.5 C 17055.302613 29895.000588 17066.699768 29891.695588 17078.702465 29888.5994 C 17090.697953 29885.503213 17102.196032 29883.098267 17113.196702 29881.197352 C 17121.602194 29879.800467 17130.303248 29879.102025 17139.098017 29879.102025 C 17153.897739 29879.102025 17163.499896 29879.498049 17168.099128 29880.304498 C 17174.997975 29881.600576 17181.601261 29883.80391 17187.699928 29886.698485 C 17193.89952 29889.701067 17199.399854 29893.596503 17204.200933 29898.5 C 17209.002012 29903.497102 17213.002911 29909.300654 17216.001783 29915.997059 C 17217.198448 29918.798029 17217.897704 29921.699805 17217.897704 29924.702387 C 17217.897704 29936.100677 17211.59719 29950.098325 17199.198007 29966.803336 C 17186.697901 29983.501147 17174.197795 29998.096431 17161.596766 30010.502782 C 17149.09666 30022.901933 17139.69635 30031.801672 17133.496759 30037.201999 L 17160.89751 30133.500631 L 17120.996653 30162.302375 L 17050.898019 29962.303064 C 17050.696172 29962.303064 17049.802278 29963.195918 17048.000071 29965.197639 C 17046.298788 29967.098554 17043.999172 29969.597105 17041.202147 29972.700493 C 17038.397913 29975.803881 17036.69663 29977.697596 17035.997374 29978.403239 C 17035.701812 29978.403239 17034.699785 29976.199905 17032.998502 29971.901245 C 17031.304428 29967.501778 17029.098527 29961.403009 17026.301502 29953.597736 C 17023.497268 29945.799664 17020.303758 29937.202344 17016.800268 29927.697768 C 17013.303987 29918.200393 17010.903447 29912.20243 17009.699573 29909.797484 Z M 17108.402832 29952.200852 L 17120.996653 29997.196377 C 17127.304376 29990.802389 17135.097118 29982.003457 17144.497428 29970.900384 C 17153.804024 29959.898118 17158.49697 29951.797627 17158.49697 29946.800525 C 17158.49697 29944.89961 17157.696791 29943.797943 17156.096431 29943.502725 C 17151.497199 29942.501864 17146.998891 29941.997834 17142.500583 29941.997834 C 17128.998451 29941.997834 17117.702219 29945.39644 17108.402832 29952.200852 Z M 17108.402832 29952.200852 " stroke="#1d2c5e" stroke-width="14.58" stroke-opacity="1" stroke-miterlimit="2"/></g><path fill="#ffcb05" d="M 38.695312 26.078125 C 45.363281 23.855469 51.648438 21.792969 57.5 19.949219 C 63.40625 18.050781 69.582031 16.257812 76.085938 14.578125 C 82.589844 12.894531 88.820312 11.59375 94.78125 10.5625 C 99.332031 9.804688 104.046875 9.425781 108.816406 9.425781 C 116.835938 9.425781 122.035156 9.640625 124.53125 10.074219 C 128.269531 10.78125 131.84375 11.976562 135.148438 13.546875 C 138.507812 15.175781 141.488281 17.289062 144.089844 19.949219 C 146.691406 22.660156 148.859375 25.808594 150.484375 29.441406 C 151.136719 30.960938 151.515625 32.535156 151.515625 34.160156 C 151.515625 40.347656 148.101562 47.941406 141.382812 57.003906 C 134.609375 66.0625 127.835938 73.980469 121.007812 80.710938 C 114.234375 87.4375 109.140625 92.265625 105.78125 95.191406 L 120.628906 147.4375 L 99.007812 163.0625 L 61.023438 54.5625 C 60.914062 54.5625 60.425781 55.046875 59.449219 56.132812 C 58.53125 57.164062 57.285156 58.519531 55.765625 60.203125 C 54.25 61.886719 53.328125 62.914062 52.949219 63.292969 C 52.785156 63.292969 52.242188 62.101562 51.324219 59.769531 C 50.402344 57.382812 49.210938 54.070312 47.691406 49.839844 C 46.175781 45.609375 44.441406 40.941406 42.546875 35.789062 C 40.648438 30.636719 39.347656 27.378906 38.695312 26.078125 Z M 92.179688 49.082031 L 99.007812 73.492188 C 102.421875 70.023438 106.648438 65.246094 111.742188 59.226562 C 116.78125 53.257812 119.328125 48.863281 119.328125 46.152344 C 119.328125 45.121094 118.894531 44.523438 118.027344 44.363281 C 115.535156 43.820312 113.097656 43.546875 110.65625 43.546875 C 103.34375 43.546875 97.21875 45.390625 92.179688 49.082031 Z M 92.179688 49.082031 " fill-opacity="1" fill-rule="nonzero"/><g clip-path="url(#0bef2e9814)"><path stroke-linecap="butt" transform="matrix(0.54187, 0, 0, 0.542502, -9178.355869, -16200.043241)" fill="none" stroke-linejoin="miter" d="M 17009.696499 29909.798168 C 17022.001967 29905.70112 17033.600969 29901.899289 17044.399792 29898.500684 C 17055.299539 29895.001272 17066.696694 29891.696271 17078.699391 29888.600084 C 17090.702088 29885.496696 17102.200167 29883.098951 17113.200837 29881.198036 C 17121.59912 29879.801151 17130.300174 29879.102709 17139.102152 29879.102709 C 17153.901874 29879.102709 17163.496822 29879.498733 17168.103263 29880.297981 C 17175.00211 29881.60126 17181.598187 29883.804594 17187.696854 29886.699169 C 17193.896446 29889.701751 17199.39678 29893.597187 17204.197859 29898.500684 C 17208.998938 29903.497786 17212.999837 29909.301338 17215.998709 29915.997743 C 17217.202583 29918.798713 17217.901839 29921.700488 17217.901839 29924.69587 C 17217.901839 29936.101361 17211.601324 29950.099008 17199.202142 29966.80402 C 17186.702036 29983.501831 17174.20193 29998.097115 17161.600901 30010.503466 C 17149.100795 30022.902617 17139.700485 30031.802356 17133.500893 30037.195483 L 17160.901645 30133.501315 L 17121.000787 30162.303059 L 17050.902154 29962.303747 C 17050.700307 29962.303747 17049.799204 29963.196601 17047.996997 29965.198323 C 17046.302923 29967.099238 17044.003307 29969.597789 17041.199073 29972.701177 C 17038.402048 29975.804565 17036.700765 29977.69828 17036.001509 29978.396722 C 17035.698738 29978.396722 17034.696711 29976.200589 17033.002637 29971.901929 C 17031.301354 29967.502462 17029.102661 29961.396492 17026.298428 29953.59842 C 17023.501403 29945.800348 17020.300684 29937.195827 17016.804403 29927.698452 C 17013.300913 29918.201077 17010.900373 29912.195913 17009.696499 29909.798168 Z M 17108.399758 29952.201536 L 17121.000787 29997.19706 C 17127.301302 29990.803073 17135.101253 29981.99694 17144.501563 29970.901068 C 17153.80095 29959.898802 17158.501105 29951.798311 17158.501105 29946.801209 C 17158.501105 29944.900293 17157.700925 29943.798627 17156.100566 29943.503409 C 17151.501334 29942.502548 17147.003026 29941.998518 17142.497509 29941.998518 C 17129.002585 29941.998518 17117.699145 29945.397123 17108.399758 29952.201536 Z M 17108.399758 29952.201536 " stroke="#395faa" stroke-width="14.58" stroke-opacity="1" stroke-miterlimit="2"/></g></svg>