<svg xmlns="http://www.w3.org/2000/svg" xmlns:xlink="http://www.w3.org/1999/xlink" width="500" zoomAndPan="magnify" viewBox="0 0 375 374.999991" height="500" preserveAspectRatio="xMidYMid meet" version="1.0"><defs><clipPath id="9d06cbca7e"><path d="M 19 55 L 356 55 L 356 332.941406 L 19 332.941406 Z M 19 55 " clip-rule="nonzero"/></clipPath></defs><g clip-path="url(#9d06cbca7e)"><path fill="#ee2337" d="M 312.230469 66.25 C 268.632812 42.140625 215.183594 60.738281 192.84375 107.792969 C 190.777344 112.144531 189.046875 117.617188 187.605469 123.960938 C 186.164062 117.617188 184.429688 112.144531 182.363281 107.792969 C 160.027344 60.738281 106.574219 42.140625 62.980469 66.25 C 30 84.484375 14.746094 123.847656 20.910156 162.515625 C 22.75 174.042969 26.410156 184.550781 31.359375 194.246094 C 44.417969 219.808594 66.464844 239.714844 87.832031 257.699219 C 119.113281 284.027344 153.019531 310.253906 187.117188 332.09375 C 187.152344 332.480469 187.171875 332.683594 187.171875 332.683594 C 187.316406 332.589844 187.460938 332.496094 187.605469 332.40625 C 187.75 332.496094 187.894531 332.589844 188.039062 332.683594 C 188.039062 332.683594 188.054688 332.480469 188.089844 332.09375 C 222.191406 310.253906 256.097656 284.027344 287.378906 257.699219 C 308.742188 239.714844 330.789062 219.808594 343.847656 194.246094 C 348.800781 184.550781 352.460938 174.042969 354.296875 162.515625 C 360.464844 123.847656 345.207031 84.484375 312.230469 66.25 " fill-opacity="1" fill-rule="nonzero"/></g></svg>